<mxfile host="app.diagrams.net" modified="2023-01-04T12:32:27.367Z" agent="5.0 (Macintosh; Intel Mac OS X 10_15_7) AppleWebKit/537.36 (KHTML, like Gecko) Chrome/108.0.0.0 Safari/537.36" version="20.8.1" etag="7OPxT6nYo_VaJnLGnSOq" type="github">
  <diagram id="d8bZDvyaRTqL3WgqzmWe" name="第 1 页">
    <mxGraphModel dx="3781" dy="1156" grid="1" gridSize="10" guides="1" tooltips="1" connect="1" arrows="1" fold="1" page="1" pageScale="1" pageWidth="827" pageHeight="1169" math="0" shadow="0">
      <root>
        <mxCell id="0" />
        <mxCell id="1" parent="0" />
        <mxCell id="cq9_FSoDsHFWqfSbP8nX-9" style="edgeStyle=orthogonalEdgeStyle;rounded=0;orthogonalLoop=1;jettySize=auto;html=1;fontSize=20;" edge="1" parent="1" source="cq9_FSoDsHFWqfSbP8nX-2" target="cq9_FSoDsHFWqfSbP8nX-8">
          <mxGeometry relative="1" as="geometry" />
        </mxCell>
        <mxCell id="cq9_FSoDsHFWqfSbP8nX-10" value="where:0" style="edgeLabel;html=1;align=center;verticalAlign=middle;resizable=0;points=[];fontSize=20;" vertex="1" connectable="0" parent="cq9_FSoDsHFWqfSbP8nX-9">
          <mxGeometry x="-0.0358" relative="1" as="geometry">
            <mxPoint as="offset" />
          </mxGeometry>
        </mxCell>
        <mxCell id="cq9_FSoDsHFWqfSbP8nX-20" value="where:1" style="edgeStyle=orthogonalEdgeStyle;rounded=0;orthogonalLoop=1;jettySize=auto;html=1;exitX=1;exitY=0.5;exitDx=0;exitDy=0;entryX=1;entryY=0.5;entryDx=0;entryDy=0;fontSize=20;" edge="1" parent="1" source="cq9_FSoDsHFWqfSbP8nX-2" target="cq9_FSoDsHFWqfSbP8nX-8">
          <mxGeometry relative="1" as="geometry" />
        </mxCell>
        <mxCell id="cq9_FSoDsHFWqfSbP8nX-2" value="lmhlo_disc.where" style="rounded=0;whiteSpace=wrap;html=1;fontSize=20;fillColor=#f8cecc;strokeColor=#b85450;gradientColor=#ea6b66;" vertex="1" parent="1">
          <mxGeometry x="781.88" y="460" width="205" height="60" as="geometry" />
        </mxCell>
        <mxCell id="cq9_FSoDsHFWqfSbP8nX-7" style="edgeStyle=orthogonalEdgeStyle;rounded=0;orthogonalLoop=1;jettySize=auto;html=1;exitX=0.5;exitY=1;exitDx=0;exitDy=0;fontSize=20;" edge="1" parent="1" source="cq9_FSoDsHFWqfSbP8nX-3" target="cq9_FSoDsHFWqfSbP8nX-2">
          <mxGeometry relative="1" as="geometry" />
        </mxCell>
        <mxCell id="cq9_FSoDsHFWqfSbP8nX-3" value="lmhlo.compare : GE" style="rounded=0;whiteSpace=wrap;html=1;fontSize=20;" vertex="1" parent="1">
          <mxGeometry x="740" y="310" width="290.62" height="70" as="geometry" />
        </mxCell>
        <mxCell id="cq9_FSoDsHFWqfSbP8nX-38" style="edgeStyle=orthogonalEdgeStyle;rounded=0;orthogonalLoop=1;jettySize=auto;html=1;entryX=0.5;entryY=0;entryDx=0;entryDy=0;fontSize=20;" edge="1" parent="1" source="cq9_FSoDsHFWqfSbP8nX-4" target="cq9_FSoDsHFWqfSbP8nX-3">
          <mxGeometry relative="1" as="geometry" />
        </mxCell>
        <mxCell id="cq9_FSoDsHFWqfSbP8nX-4" value="lmhlo.dynamic_broadcast" style="rounded=0;whiteSpace=wrap;html=1;fontSize=20;" vertex="1" parent="1">
          <mxGeometry x="740" y="170" width="288.75" height="70" as="geometry" />
        </mxCell>
        <mxCell id="cq9_FSoDsHFWqfSbP8nX-19" style="edgeStyle=orthogonalEdgeStyle;rounded=0;orthogonalLoop=1;jettySize=auto;html=1;exitX=0.5;exitY=1;exitDx=0;exitDy=0;entryX=0.5;entryY=0;entryDx=0;entryDy=0;fontSize=20;" edge="1" parent="1" source="cq9_FSoDsHFWqfSbP8nX-8" target="cq9_FSoDsHFWqfSbP8nX-18">
          <mxGeometry relative="1" as="geometry" />
        </mxCell>
        <mxCell id="cq9_FSoDsHFWqfSbP8nX-8" value="lmhlo.real_dynamic_slice" style="rounded=0;whiteSpace=wrap;html=1;fontSize=20;" vertex="1" parent="1">
          <mxGeometry x="745.94" y="600" width="278.75" height="60" as="geometry" />
        </mxCell>
        <mxCell id="cq9_FSoDsHFWqfSbP8nX-62" style="edgeStyle=orthogonalEdgeStyle;rounded=0;orthogonalLoop=1;jettySize=auto;html=1;entryX=1;entryY=0.5;entryDx=0;entryDy=0;fontSize=20;" edge="1" parent="1" source="cq9_FSoDsHFWqfSbP8nX-14" target="cq9_FSoDsHFWqfSbP8nX-47">
          <mxGeometry relative="1" as="geometry">
            <Array as="points">
              <mxPoint x="1299" y="945" />
            </Array>
          </mxGeometry>
        </mxCell>
        <mxCell id="cq9_FSoDsHFWqfSbP8nX-63" value="Values" style="edgeLabel;html=1;align=center;verticalAlign=middle;resizable=0;points=[];fontSize=20;" vertex="1" connectable="0" parent="cq9_FSoDsHFWqfSbP8nX-62">
          <mxGeometry x="-0.7238" y="-2" relative="1" as="geometry">
            <mxPoint as="offset" />
          </mxGeometry>
        </mxCell>
        <mxCell id="cq9_FSoDsHFWqfSbP8nX-14" value="lmhlo.dynamic_gather" style="rounded=0;whiteSpace=wrap;html=1;fontSize=20;" vertex="1" parent="1">
          <mxGeometry x="1160" y="780" width="278.75" height="60" as="geometry" />
        </mxCell>
        <mxCell id="cq9_FSoDsHFWqfSbP8nX-50" value="StartIndices" style="edgeStyle=orthogonalEdgeStyle;rounded=0;orthogonalLoop=1;jettySize=auto;html=1;exitX=1;exitY=0.5;exitDx=0;exitDy=0;entryX=0;entryY=0.5;entryDx=0;entryDy=0;fontSize=20;" edge="1" parent="1" source="cq9_FSoDsHFWqfSbP8nX-18" target="cq9_FSoDsHFWqfSbP8nX-14">
          <mxGeometry relative="1" as="geometry" />
        </mxCell>
        <mxCell id="cq9_FSoDsHFWqfSbP8nX-53" style="edgeStyle=orthogonalEdgeStyle;rounded=0;orthogonalLoop=1;jettySize=auto;html=1;exitX=0;exitY=0.5;exitDx=0;exitDy=0;entryX=1;entryY=0.5;entryDx=0;entryDy=0;fontSize=20;" edge="1" parent="1" source="cq9_FSoDsHFWqfSbP8nX-18" target="cq9_FSoDsHFWqfSbP8nX-27">
          <mxGeometry relative="1" as="geometry" />
        </mxCell>
        <mxCell id="cq9_FSoDsHFWqfSbP8nX-54" value="StartIndices" style="edgeLabel;html=1;align=center;verticalAlign=middle;resizable=0;points=[];fontSize=20;" vertex="1" connectable="0" parent="cq9_FSoDsHFWqfSbP8nX-53">
          <mxGeometry x="-0.0323" y="-1" relative="1" as="geometry">
            <mxPoint as="offset" />
          </mxGeometry>
        </mxCell>
        <mxCell id="cq9_FSoDsHFWqfSbP8nX-18" value="lmhlo.dynamic_reshape" style="rounded=0;whiteSpace=wrap;html=1;fontSize=20;" vertex="1" parent="1">
          <mxGeometry x="745" y="720" width="278.75" height="60" as="geometry" />
        </mxCell>
        <mxCell id="cq9_FSoDsHFWqfSbP8nX-48" style="edgeStyle=orthogonalEdgeStyle;rounded=0;orthogonalLoop=1;jettySize=auto;html=1;exitX=0;exitY=0.5;exitDx=0;exitDy=0;entryX=1;entryY=0.5;entryDx=0;entryDy=0;fontSize=20;" edge="1" parent="1" source="cq9_FSoDsHFWqfSbP8nX-22" target="cq9_FSoDsHFWqfSbP8nX-3">
          <mxGeometry relative="1" as="geometry" />
        </mxCell>
        <mxCell id="cq9_FSoDsHFWqfSbP8nX-49" style="edgeStyle=orthogonalEdgeStyle;rounded=0;orthogonalLoop=1;jettySize=auto;html=1;entryX=0.5;entryY=0;entryDx=0;entryDy=0;fontSize=20;" edge="1" parent="1" source="cq9_FSoDsHFWqfSbP8nX-22" target="cq9_FSoDsHFWqfSbP8nX-14">
          <mxGeometry relative="1" as="geometry" />
        </mxCell>
        <mxCell id="cq9_FSoDsHFWqfSbP8nX-22" value="sparse tensor index" style="rounded=0;whiteSpace=wrap;html=1;fontSize=20;fillColor=#d5e8d4;strokeColor=#82b366;gradientColor=#97d077;" vertex="1" parent="1">
          <mxGeometry x="1155" y="165" width="288.75" height="70" as="geometry" />
        </mxCell>
        <mxCell id="cq9_FSoDsHFWqfSbP8nX-39" style="edgeStyle=orthogonalEdgeStyle;rounded=0;orthogonalLoop=1;jettySize=auto;html=1;entryX=0.5;entryY=0;entryDx=0;entryDy=0;fontSize=20;" edge="1" parent="1" source="cq9_FSoDsHFWqfSbP8nX-25" target="cq9_FSoDsHFWqfSbP8nX-4">
          <mxGeometry relative="1" as="geometry" />
        </mxCell>
        <mxCell id="cq9_FSoDsHFWqfSbP8nX-25" value="lmhlo.constant: 0" style="rounded=0;whiteSpace=wrap;html=1;fontSize=20;" vertex="1" parent="1">
          <mxGeometry x="782.8199999999999" y="70" width="205" height="60" as="geometry" />
        </mxCell>
        <mxCell id="cq9_FSoDsHFWqfSbP8nX-68" style="edgeStyle=orthogonalEdgeStyle;rounded=0;orthogonalLoop=1;jettySize=auto;html=1;entryX=0;entryY=0.25;entryDx=0;entryDy=0;fontSize=20;" edge="1" parent="1" source="cq9_FSoDsHFWqfSbP8nX-27" target="cq9_FSoDsHFWqfSbP8nX-47">
          <mxGeometry relative="1" as="geometry">
            <Array as="points">
              <mxPoint x="474" y="928" />
            </Array>
          </mxGeometry>
        </mxCell>
        <mxCell id="cq9_FSoDsHFWqfSbP8nX-70" value="Indices" style="edgeLabel;html=1;align=center;verticalAlign=middle;resizable=0;points=[];fontSize=20;" vertex="1" connectable="0" parent="cq9_FSoDsHFWqfSbP8nX-68">
          <mxGeometry x="0.1453" y="-2" relative="1" as="geometry">
            <mxPoint y="1" as="offset" />
          </mxGeometry>
        </mxCell>
        <mxCell id="cq9_FSoDsHFWqfSbP8nX-27" value="lmhlo.dynamic_gather" style="rounded=0;whiteSpace=wrap;html=1;fontSize=20;" vertex="1" parent="1">
          <mxGeometry x="335" y="780" width="278.75" height="60" as="geometry" />
        </mxCell>
        <mxCell id="cq9_FSoDsHFWqfSbP8nX-65" style="edgeStyle=orthogonalEdgeStyle;rounded=0;orthogonalLoop=1;jettySize=auto;html=1;entryX=0.5;entryY=0;entryDx=0;entryDy=0;fontSize=20;" edge="1" parent="1" source="cq9_FSoDsHFWqfSbP8nX-28" target="cq9_FSoDsHFWqfSbP8nX-64">
          <mxGeometry relative="1" as="geometry" />
        </mxCell>
        <mxCell id="cq9_FSoDsHFWqfSbP8nX-28" value="some other&lt;br&gt;shape calculation" style="rounded=0;whiteSpace=wrap;html=1;fontSize=20;" vertex="1" parent="1">
          <mxGeometry x="-120" y="360" width="288.75" height="70" as="geometry" />
        </mxCell>
        <mxCell id="cq9_FSoDsHFWqfSbP8nX-52" style="edgeStyle=orthogonalEdgeStyle;rounded=0;orthogonalLoop=1;jettySize=auto;html=1;fontSize=20;" edge="1" parent="1" source="cq9_FSoDsHFWqfSbP8nX-29" target="cq9_FSoDsHFWqfSbP8nX-27">
          <mxGeometry relative="1" as="geometry" />
        </mxCell>
        <mxCell id="cq9_FSoDsHFWqfSbP8nX-29" value="lmhlo_disc.sparse_reshape" style="rounded=0;whiteSpace=wrap;html=1;fontSize=20;fillColor=#f8cecc;strokeColor=#b85450;gradientColor=#ea6b66;" vertex="1" parent="1">
          <mxGeometry x="330" y="490" width="288.75" height="70" as="geometry" />
        </mxCell>
        <mxCell id="cq9_FSoDsHFWqfSbP8nX-42" style="edgeStyle=orthogonalEdgeStyle;rounded=0;orthogonalLoop=1;jettySize=auto;html=1;entryX=0.5;entryY=0;entryDx=0;entryDy=0;fontSize=20;" edge="1" parent="1" source="cq9_FSoDsHFWqfSbP8nX-36" target="cq9_FSoDsHFWqfSbP8nX-29">
          <mxGeometry relative="1" as="geometry" />
        </mxCell>
        <mxCell id="cq9_FSoDsHFWqfSbP8nX-36" value="sparse tensor value" style="rounded=0;whiteSpace=wrap;html=1;fontSize=20;fillColor=#d5e8d4;gradientColor=#97d077;strokeColor=#82b366;" vertex="1" parent="1">
          <mxGeometry x="330" y="165" width="288.75" height="70" as="geometry" />
        </mxCell>
        <mxCell id="cq9_FSoDsHFWqfSbP8nX-44" style="edgeStyle=orthogonalEdgeStyle;rounded=0;orthogonalLoop=1;jettySize=auto;html=1;entryX=0.5;entryY=0;entryDx=0;entryDy=0;fontSize=20;" edge="1" parent="1" source="cq9_FSoDsHFWqfSbP8nX-43" target="cq9_FSoDsHFWqfSbP8nX-28">
          <mxGeometry relative="1" as="geometry" />
        </mxCell>
        <mxCell id="cq9_FSoDsHFWqfSbP8nX-57" style="edgeStyle=orthogonalEdgeStyle;rounded=0;orthogonalLoop=1;jettySize=auto;html=1;entryX=0.25;entryY=0;entryDx=0;entryDy=0;fontSize=20;" edge="1" parent="1" source="cq9_FSoDsHFWqfSbP8nX-43" target="cq9_FSoDsHFWqfSbP8nX-29">
          <mxGeometry relative="1" as="geometry" />
        </mxCell>
        <mxCell id="cq9_FSoDsHFWqfSbP8nX-58" value="InputShape" style="edgeLabel;html=1;align=center;verticalAlign=middle;resizable=0;points=[];fontSize=20;" vertex="1" connectable="0" parent="cq9_FSoDsHFWqfSbP8nX-57">
          <mxGeometry x="-0.2524" relative="1" as="geometry">
            <mxPoint as="offset" />
          </mxGeometry>
        </mxCell>
        <mxCell id="cq9_FSoDsHFWqfSbP8nX-43" value="sparse tensor shape" style="rounded=0;whiteSpace=wrap;html=1;fontSize=20;fillColor=#d5e8d4;gradientColor=#97d077;strokeColor=#82b366;" vertex="1" parent="1">
          <mxGeometry x="-120" y="250" width="288.75" height="70" as="geometry" />
        </mxCell>
        <mxCell id="cq9_FSoDsHFWqfSbP8nX-47" value="lmhlo_disc.sparse_fill_empty_rows" style="rounded=0;whiteSpace=wrap;html=1;fontSize=20;fillColor=#f8cecc;strokeColor=#b85450;gradientColor=#ea6b66;" vertex="1" parent="1">
          <mxGeometry x="711.87" y="910" width="345" height="70" as="geometry" />
        </mxCell>
        <mxCell id="cq9_FSoDsHFWqfSbP8nX-66" style="edgeStyle=orthogonalEdgeStyle;rounded=0;orthogonalLoop=1;jettySize=auto;html=1;entryX=0;entryY=0.5;entryDx=0;entryDy=0;fontSize=20;" edge="1" parent="1" source="cq9_FSoDsHFWqfSbP8nX-64" target="cq9_FSoDsHFWqfSbP8nX-29">
          <mxGeometry relative="1" as="geometry" />
        </mxCell>
        <mxCell id="cq9_FSoDsHFWqfSbP8nX-69" style="edgeStyle=orthogonalEdgeStyle;rounded=0;orthogonalLoop=1;jettySize=auto;html=1;entryX=0;entryY=0.75;entryDx=0;entryDy=0;fontSize=20;" edge="1" parent="1" source="cq9_FSoDsHFWqfSbP8nX-64" target="cq9_FSoDsHFWqfSbP8nX-47">
          <mxGeometry relative="1" as="geometry">
            <Array as="points">
              <mxPoint x="24" y="963" />
            </Array>
          </mxGeometry>
        </mxCell>
        <mxCell id="cq9_FSoDsHFWqfSbP8nX-71" value="DenseShape" style="edgeLabel;html=1;align=center;verticalAlign=middle;resizable=0;points=[];fontSize=20;" vertex="1" connectable="0" parent="cq9_FSoDsHFWqfSbP8nX-69">
          <mxGeometry x="0.1433" y="3" relative="1" as="geometry">
            <mxPoint y="1" as="offset" />
          </mxGeometry>
        </mxCell>
        <mxCell id="cq9_FSoDsHFWqfSbP8nX-64" value="NewShape" style="rounded=0;whiteSpace=wrap;html=1;fontSize=20;fillColor=#ffcd28;gradientColor=#ffa500;strokeColor=#d79b00;" vertex="1" parent="1">
          <mxGeometry x="-120" y="490" width="288.75" height="70" as="geometry" />
        </mxCell>
      </root>
    </mxGraphModel>
  </diagram>
</mxfile>
